<svg width="62" height="57" viewBox="0 0 62 57" fill="none" xmlns="http://www.w3.org/2000/svg">
<g id="mdi:shield-account-outline">
<path id="Vector" d="M31 2.375L7.75 11.875V26.125C7.75 39.3063 17.67 51.6325 31 54.625C44.33 51.6325 54.25 39.3063 54.25 26.125V11.875L31 2.375ZM31 7.5525L49.0833 14.9625V26.6475C49.0833 30.685 47.7917 34.7938 45.5958 38.4038C41.3333 35.4825 34.255 34.4375 31 34.4375C27.745 34.4375 20.6667 35.4825 16.4042 38.4038C14.2083 34.7938 12.9167 30.685 12.9167 26.6475V14.9625L31 7.5525ZM31 14.25C28.602 14.25 26.3022 15.1258 24.6066 16.6847C22.9109 18.2436 21.9583 20.3579 21.9583 22.5625C21.9583 24.7671 22.9109 26.8814 24.6066 28.4403C26.3022 29.9992 28.602 30.875 31 30.875C33.398 30.875 35.6978 29.9992 37.3934 28.4403C39.0891 26.8814 40.0417 24.7671 40.0417 22.5625C40.0417 20.3579 39.0891 18.2436 37.3934 16.6847C35.6978 15.1258 33.398 14.25 31 14.25ZM31 19C32.0277 19 33.0133 19.3753 33.74 20.0434C34.4667 20.7115 34.875 21.6177 34.875 22.5625C34.875 23.5073 34.4667 24.4135 33.74 25.0816C33.0133 25.7497 32.0277 26.125 31 26.125C29.9723 26.125 28.9867 25.7497 28.26 25.0816C27.5333 24.4135 27.125 23.5073 27.125 22.5625C27.125 21.6177 27.5333 20.7115 28.26 20.0434C28.9867 19.3753 29.9723 19 31 19ZM31 39.1875C35.0558 39.1875 40.4033 40.6362 42.7025 42.37C39.4992 46.0275 35.3917 48.8063 31 49.875C26.6083 48.8063 22.5008 46.0275 19.2975 42.37C21.6225 40.6362 26.9442 39.1875 31 39.1875Z" fill="#565CFB"/>
</g>
</svg>
