<svg width="9" height="25" viewBox="0 0 9 25" fill="none" xmlns="http://www.w3.org/2000/svg">
<g id="Group">
<path id="Vector" d="M4.5 24.75C6.98528 24.75 9 23.183 9 21.25C9 19.317 6.98528 17.75 4.5 17.75C2.01472 17.75 0 19.317 0 21.25C0 23.183 2.01472 24.75 4.5 24.75Z" fill="#699BF7"/>
<path id="Vector_2" d="M4.5 16C6.98528 16 9 14.433 9 12.5C9 10.567 6.98528 9 4.5 9C2.01472 9 0 10.567 0 12.5C0 14.433 2.01472 16 4.5 16Z" fill="#699BF7"/>
<path id="Vector_3" d="M4.5 7.25C6.98528 7.25 9 5.683 9 3.75C9 1.817 6.98528 0.25 4.5 0.25C2.01472 0.25 0 1.817 0 3.75C0 5.683 2.01472 7.25 4.5 7.25Z" fill="#699BF7"/>
</g>
</svg>
