<svg width="28" height="34" viewBox="0 0 28 34" fill="none" xmlns="http://www.w3.org/2000/svg">
<path id="Vector" d="M13.4167 20.093V32H0.666657C0.666507 30.2974 1.00854 28.6143 1.67004 27.0624C2.33153 25.5105 3.29734 24.1255 4.5033 22.9992C5.70926 21.873 7.12775 21.0314 8.66455 20.5303C10.2013 20.0293 11.8213 19.8802 13.4167 20.093ZM12 18.5C7.30374 18.5 3.49999 14.4725 3.49999 9.5C3.49999 4.5275 7.30374 0.5 12 0.5C16.6962 0.5 20.5 4.5275 20.5 9.5C20.5 14.4725 16.6962 18.5 12 18.5ZM20.2067 28.871L25.2147 23.5685L27.2192 25.6895L20.2067 33.1145L15.1974 27.8105L17.202 25.6895L20.2067 28.871Z" fill="#283EFF"/>
</svg>
