<svg width="48" height="65" viewBox="0 0 48 65" fill="none" xmlns="http://www.w3.org/2000/svg">
<g id="mdi:account-group">
<path id="Vector" d="M24 14.8958C25.8565 14.8958 27.637 15.8944 28.9497 17.6721C30.2625 19.4498 31 21.8609 31 24.3749C31 26.8889 30.2625 29.3 28.9497 31.0777C27.637 32.8554 25.8565 33.8541 24 33.8541C22.1435 33.8541 20.363 32.8554 19.0503 31.0777C17.7375 29.3 17 26.8889 17 24.3749C17 21.8609 17.7375 19.4498 19.0503 17.6721C20.363 15.8944 22.1435 14.8958 24 14.8958ZM10 21.6666C11.12 21.6666 12.16 22.0728 13.06 22.8041C12.76 26.677 13.6 30.5228 15.32 33.5291C14.32 36.1291 12.32 37.9166 10 37.9166C8.4087 37.9166 6.88258 37.0606 5.75736 35.5368C4.63214 34.0131 4 31.9465 4 29.7916C4 27.6367 4.63214 25.5701 5.75736 24.0463C6.88258 22.5226 8.4087 21.6666 10 21.6666ZM38 21.6666C39.5913 21.6666 41.1174 22.5226 42.2426 24.0463C43.3679 25.5701 44 27.6367 44 29.7916C44 31.9465 43.3679 34.0131 42.2426 35.5368C41.1174 37.0606 39.5913 37.9166 38 37.9166C35.68 37.9166 33.68 36.1291 32.68 33.5291C34.4237 30.4806 35.2331 26.6396 34.94 22.8041C35.84 22.0728 36.88 21.6666 38 21.6666ZM11 49.427C11 43.8208 16.82 39.2708 24 39.2708C31.18 39.2708 37 43.8208 37 49.427V54.1666H11V49.427ZM0 54.1666V50.1041C0 46.3395 3.78 43.1708 8.9 42.2499C7.72 44.0916 7 46.6374 7 49.427V54.1666H0ZM48 54.1666H41V49.427C41 46.6374 40.28 44.0916 39.1 42.2499C44.22 43.1708 48 46.3395 48 50.1041V54.1666Z" fill="#565CFB"/>
</g>
</svg>
