<svg width="52" height="50" viewBox="0 0 52 50" fill="none" xmlns="http://www.w3.org/2000/svg">
<path id="Vector" d="M51.326 25.81L27.9286 0.791824C26.9433 -0.263941 25.0508 -0.263941 24.0655 0.791824L0.668083 25.81C0.331307 26.1692 0.11025 26.6149 0.0317894 27.0928C-0.0466709 27.5707 0.0208464 28.0602 0.226132 28.5019C0.642086 29.4051 1.57278 29.9855 2.59967 29.9855H7.79909V47.4982C7.79909 48.1617 8.07298 48.7981 8.56052 49.2672C9.04806 49.7364 9.70931 50 10.3988 50H18.1979C18.8874 50 19.5487 49.7364 20.0362 49.2672C20.5237 48.7981 20.7976 48.1617 20.7976 47.4982V37.4909H31.1965V47.4982C31.1965 48.1617 31.4704 48.7981 31.9579 49.2672C32.4454 49.7364 33.1067 50 33.7962 50H41.5953C42.2848 50 42.946 49.7364 43.4336 49.2672C43.9211 48.7981 44.195 48.1617 44.195 47.4982V29.9855H49.3944C49.8979 29.9876 50.3911 29.8486 50.814 29.5856C51.2368 29.3225 51.571 28.9468 51.7757 28.5041C51.9805 28.0615 52.047 27.5711 51.9672 27.0927C51.8873 26.6143 51.6645 26.1686 51.326 25.81Z" fill="#565CFB"/>
</svg>
