<svg width="116" height="117" viewBox="0 0 116 117" fill="none" xmlns="http://www.w3.org/2000/svg">
<g id="ph:image">
<path id="Vector" d="M97.875 18.2812H18.125C16.2022 18.2813 14.3581 19.0517 12.9985 20.423C11.6388 21.7944 10.875 23.6544 10.875 25.5938V91.4062C10.875 93.3456 11.6388 95.2056 12.9985 96.577C14.3581 97.9483 16.2022 98.7188 18.125 98.7188H97.875C99.7978 98.7188 101.642 97.9483 103.002 96.577C104.361 95.2056 105.125 93.3456 105.125 91.4062V25.5938C105.125 23.6544 104.361 21.7944 103.002 20.423C101.642 19.0517 99.7978 18.2813 97.875 18.2812ZM97.875 25.5938V72.5537L86.062 60.6435C85.3888 59.9643 84.5895 59.4255 83.7098 59.0579C82.83 58.6903 81.8871 58.5011 80.9349 58.5011C79.9827 58.5011 79.0398 58.6903 78.1601 59.0579C77.2804 59.4255 76.4811 59.9643 75.8078 60.6435L66.7453 69.7841L46.8078 49.6747C45.4483 48.3044 43.605 47.5346 41.683 47.5346C39.761 47.5346 37.9176 48.3044 36.5581 49.6747L18.125 68.2668V25.5938H97.875ZM18.125 78.6094L41.6875 54.8438L77.9375 91.4062H18.125V78.6094ZM97.875 91.4062H88.1917L71.8792 74.9531L80.9417 65.8125L97.875 82.8963V91.4062ZM65.25 45.7031C65.25 44.6184 65.5689 43.5581 66.1664 42.6562C66.7639 41.7543 67.6131 41.0513 68.6067 40.6362C69.6002 40.2211 70.6935 40.1125 71.7483 40.3241C72.8031 40.5357 73.7719 41.0581 74.5324 41.8251C75.2928 42.5921 75.8107 43.5693 76.0205 44.6332C76.2303 45.697 76.1226 46.7998 75.7111 47.8019C75.2995 48.804 74.6026 49.6606 73.7084 50.2632C72.8142 50.8658 71.7629 51.1875 70.6875 51.1875C69.2454 51.1875 67.8623 50.6097 66.8426 49.5812C65.8229 48.5526 65.25 47.1577 65.25 45.7031Z" fill="#699BF7"/>
</g>
</svg>
