<svg width="48" height="49" viewBox="0 0 48 49" fill="none" xmlns="http://www.w3.org/2000/svg">
<g id="tdesign:notification">
<path id="Vector" d="M7.33332 17.6667C7.33332 13.5116 8.87856 9.52673 11.6291 6.58866C14.3796 3.65059 18.1101 2 22 2C25.8898 2 29.6204 3.65059 32.3709 6.58866C35.1214 9.52673 36.6667 13.5116 36.6667 17.6667V26.865L40.3333 32.74V41.1667H30.0465C29.6295 43.1127 28.6065 44.8499 27.145 46.0941C25.6834 47.3384 23.8698 48.0159 22.0009 48.0159C20.132 48.0159 18.3184 47.3384 16.8568 46.0941C15.3953 44.8499 14.3723 43.1127 13.9553 41.1667H3.66666V32.74L7.33332 26.865V17.6667ZM17.798 41.1667C18.1544 42.0406 18.7418 42.7843 19.4882 43.3067C20.2347 43.8291 21.1076 44.1074 22 44.1074C22.8924 44.1074 23.7653 43.8291 24.5117 43.3067C25.2582 42.7843 25.8456 42.0406 26.202 41.1667H17.798ZM22 5.91667C19.0826 5.91667 16.2847 7.15461 14.2218 9.35816C12.1589 11.5617 11 14.5504 11 17.6667V28.0517L7.33332 33.9267V37.25H36.6667V33.9267L33 28.0517V17.6667C33 14.5504 31.8411 11.5617 29.7782 9.35816C27.7153 7.15461 24.9174 5.91667 22 5.91667Z" fill="#F8F8F8"/>
<g id="Ellipse 3" filter="url(#filter0_d_61_188)">
<ellipse cx="33" cy="13.2159" rx="11" ry="12.2841" fill="#FF254C"/>
<path d="M42.5 13.2159C42.5 19.3318 38.0952 24 33 24C27.9048 24 23.5 19.3318 23.5 13.2159C23.5 7.09999 27.9048 2.43182 33 2.43182C38.0952 2.43182 42.5 7.09999 42.5 13.2159Z" stroke="#FFFBFB" stroke-width="3"/>
</g>
</g>
<defs>
<filter id="filter0_d_61_188" x="18" y="0.931824" width="30" height="32.5682" filterUnits="userSpaceOnUse" color-interpolation-filters="sRGB">
<feFlood flood-opacity="0" result="BackgroundImageFix"/>
<feColorMatrix in="SourceAlpha" type="matrix" values="0 0 0 0 0 0 0 0 0 0 0 0 0 0 0 0 0 0 127 0" result="hardAlpha"/>
<feOffset dy="4"/>
<feGaussianBlur stdDeviation="2"/>
<feComposite in2="hardAlpha" operator="out"/>
<feColorMatrix type="matrix" values="0 0 0 0 0 0 0 0 0 0 0 0 0 0 0 0 0 0 0.25 0"/>
<feBlend mode="normal" in2="BackgroundImageFix" result="effect1_dropShadow_61_188"/>
<feBlend mode="normal" in="SourceGraphic" in2="effect1_dropShadow_61_188" result="shape"/>
</filter>
</defs>
</svg>
