<svg width="39" height="35" viewBox="0 0 39 35" fill="none" xmlns="http://www.w3.org/2000/svg">
<g id="uil:share">
<path id="Vector" d="M35.2739 16.4647L22.2739 5.13133C22.0466 4.93327 21.7571 4.7984 21.4419 4.74376C21.1268 4.68912 20.8001 4.71717 20.5032 4.82437C20.2063 4.93157 19.9525 5.1131 19.774 5.34602C19.5954 5.57893 19.5001 5.85277 19.5 6.13292V11.155C15.061 11.5131 10.935 13.3025 7.9295 16.1729C4.924 19.0433 3.25532 22.7881 3.25 26.6746V28.7996C3.25026 29.0937 3.35548 29.3804 3.55107 29.62C3.74666 29.8595 4.02293 30.0401 4.34155 30.1367C4.66018 30.2332 5.00536 30.2409 5.32924 30.1587C5.65311 30.0765 5.93961 29.9085 6.149 29.6779C7.74101 28.0274 9.69435 26.6701 11.8949 25.6852C14.0955 24.7003 16.4991 24.1077 18.9654 23.9418C19.0466 23.9333 19.2498 23.9192 19.5 23.905V28.7996C19.5001 29.0797 19.5954 29.3536 19.774 29.5865C19.9525 29.8194 20.2063 30.0009 20.5032 30.1081C20.8001 30.2153 21.1268 30.2434 21.4419 30.1887C21.7571 30.1341 22.0466 29.9992 22.2739 29.8012L35.2739 18.4678C35.5785 18.2022 35.7497 17.8419 35.7497 17.4663C35.7497 17.0906 35.5785 16.7303 35.2739 16.4647ZM22.75 25.3798V22.4246C22.75 22.0489 22.5788 21.6885 22.274 21.4229C21.9693 21.1572 21.556 21.0079 21.125 21.0079C20.7106 21.0079 19.019 21.0788 18.5868 21.1283C14.2072 21.4801 10.0383 22.9307 6.5845 25.3047C6.97652 22.1801 8.67675 19.2914 11.3597 17.1916C14.0426 15.0919 17.5196 13.9286 21.125 13.9246C21.556 13.9246 21.9693 13.7753 22.274 13.5097C22.5788 13.244 22.75 12.8836 22.75 12.5079V9.55275L31.8273 17.4663L22.75 25.3798Z" fill="#565CFB"/>
</g>
</svg>
