<svg width="39" height="35" viewBox="0 0 39 35" fill="none" xmlns="http://www.w3.org/2000/svg">
<g id="uiw:like-o" clip-path="url(#clip0_61_118)">
<path id="Vector" d="M2.65162 16.6078V28.7747H8.56012L8.85847 28.8053C14.3438 29.9205 17.9786 30.7246 19.7902 31.2227C22.1965 31.884 23.0935 32.0455 24.7256 32.1407C25.9463 32.2138 27.3328 31.8041 27.9646 31.2431C28.3136 30.9337 28.5749 30.2979 28.6783 29.3119C28.6997 29.1052 28.7845 28.9072 28.9237 28.7389C29.063 28.5705 29.2517 28.4378 29.47 28.3548C29.9555 28.1712 30.3592 27.872 30.6965 27.4368C31.0085 27.039 31.2113 26.2978 31.2484 25.2251C31.2549 25.0279 31.319 24.8354 31.4347 24.6659C31.5504 24.4963 31.7138 24.3553 31.9094 24.2561C33.0443 23.6832 33.6059 23.0372 33.7229 22.279C33.8516 21.4409 33.5396 20.4974 32.7226 19.423C32.5309 19.1711 32.4595 18.8638 32.5236 18.5667C32.5877 18.2695 32.7822 18.0059 33.0658 17.8318C33.8477 17.3524 34.2767 16.686 34.384 15.7408C34.5556 14.2346 33.4538 13.1211 30.9598 12.8984C28.7385 12.7069 26.4957 12.8699 24.3415 13.3795C24.0971 13.4352 23.8396 13.4289 23.5992 13.3613C23.3588 13.2937 23.1456 13.1677 22.9846 12.998C22.8235 12.8284 22.7215 12.6221 22.6903 12.4036C22.6592 12.1851 22.7003 11.9634 22.8088 11.7645C23.7838 9.96594 24.3259 8.48184 24.4526 7.33264C24.6184 5.80774 24.2147 4.70274 23.2709 3.79154C22.5553 3.10134 21.4106 2.70694 20.9816 2.78854C20.4161 2.89394 20.0476 3.17954 19.5679 4.17914C19.2851 4.77074 19.1486 5.27394 18.9146 6.44864C18.6904 7.56384 18.5675 8.06704 18.3121 8.72664C17.5418 10.7258 15.6523 12.7981 13.1153 14.2278C11.3373 15.2287 9.41032 16.0123 7.38817 16.5568C7.26184 16.5908 7.13037 16.608 6.99817 16.6078H2.65162ZM2.56972 31.0918C1.93987 31.1071 1.37437 30.9847 0.900524 30.6957C0.296024 30.3268 0.0113236 29.7454 0.00547358 29.0756L0.0113236 16.6265C-0.0549764 15.9635 0.169273 15.3549 0.699674 14.9027C1.19692 14.4777 1.84627 14.2771 2.53267 14.2907H6.79342C8.51694 13.812 10.1601 13.1363 11.6801 12.2813C13.7237 11.1287 15.2291 9.47634 15.8044 7.98714C16.0013 7.47374 16.1066 7.04874 16.3055 6.04914C16.5746 4.70784 16.7423 4.08394 17.1284 3.28154C17.9279 1.61214 18.977 0.79614 20.4239 0.52244C21.8474 0.25384 23.9203 0.96954 25.2307 2.23434C26.6834 3.63514 27.325 5.38784 27.0871 7.55364C26.9857 8.48524 26.6893 9.52734 26.2018 10.6884C27.8666 10.4769 29.555 10.4449 31.2289 10.5932C35.1425 10.9417 37.3402 13.1636 37.0204 15.972C36.88 17.1824 36.3769 18.2109 35.5208 19.0184C36.2404 20.2271 36.527 21.4222 36.3476 22.5884C36.1409 23.9314 35.2829 25.05 33.8555 25.9187C33.7444 27.0968 33.4343 28.0369 32.8844 28.7407C32.4511 29.3093 31.8858 29.7923 31.225 30.1585C31.0144 31.3213 30.5717 32.2308 29.8483 32.87C28.649 33.9342 26.506 34.5683 24.5482 34.4527C22.6898 34.3439 21.59 34.1467 18.9965 33.4327C17.2864 32.9618 13.7452 32.1798 8.40802 31.0918H2.56972ZM5.88667 16.0791C5.88616 15.927 5.92008 15.7764 5.98649 15.6357C6.0529 15.4951 6.15049 15.3672 6.27367 15.2595C6.39685 15.1518 6.5432 15.0664 6.70433 15.0081C6.86547 14.9498 7.03821 14.9197 7.21267 14.9197C7.38681 14.9202 7.55913 14.9505 7.71982 15.009C7.8805 15.0675 8.02639 15.1531 8.14916 15.2607C8.27192 15.3684 8.36917 15.4961 8.43533 15.6365C8.5015 15.7769 8.53529 15.9273 8.53477 16.0791V29.1317C8.53503 29.2835 8.50099 29.4339 8.43458 29.5743C8.36818 29.7146 8.27073 29.8422 8.14778 29.9497C8.02483 30.0572 7.87879 30.1425 7.71801 30.2008C7.55723 30.2591 7.38486 30.2892 7.21072 30.2894C7.03659 30.2892 6.86421 30.2591 6.70343 30.2008C6.54265 30.1425 6.39662 30.0572 6.27367 29.9497C6.15072 29.8422 6.05326 29.7146 5.98686 29.5743C5.92046 29.4339 5.88642 29.2835 5.88667 29.1317V16.0791Z" fill="#565CFB"/>
</g>
<defs>
<clipPath id="clip0_61_118">
<rect width="39" height="34" fill="white" transform="translate(0 0.466309)"/>
</clipPath>
</defs>
</svg>
