<svg width="42" height="31" viewBox="0 0 42 31" fill="none" xmlns="http://www.w3.org/2000/svg">
<path id="Vector" d="M0 6.27028C0 4.73097 0.790176 3.25471 2.1967 2.16625C3.60322 1.0778 5.51088 0.466309 7.5 0.466309H34.5C36.4891 0.466309 38.3968 1.0778 39.8033 2.16625C41.2098 3.25471 42 4.73097 42 6.27028V17.8782C42 18.6404 41.806 19.3951 41.4291 20.0993C41.0522 20.8035 40.4997 21.4433 39.8033 21.9823C39.1069 22.5212 38.2801 22.9487 37.3701 23.2404C36.4602 23.5321 35.4849 23.6822 34.5 23.6822H23.064L13.875 29.9041C13.4498 30.1917 12.9266 30.3785 12.3678 30.4421C11.8091 30.5057 11.2385 30.4434 10.7243 30.2627C10.2101 30.082 9.77401 29.7905 9.46823 29.423C9.16245 29.0556 8.99989 28.6278 9 28.1907V23.6822H7.5C5.51088 23.6822 3.60322 23.0707 2.1967 21.9823C0.790176 20.8938 0 19.4175 0 17.8782V6.27028ZM7.5 2.7879C6.30653 2.7879 5.16193 3.15479 4.31802 3.80786C3.47411 4.46094 3 5.3467 3 6.27028V17.8782C3 18.8018 3.47411 19.6876 4.31802 20.3406C5.16193 20.9937 6.30653 21.3606 7.5 21.3606H12V28.0886L21.936 21.3606H34.5C35.6935 21.3606 36.8381 20.9937 37.682 20.3406C38.5259 19.6876 39 18.8018 39 17.8782V6.27028C39 5.3467 38.5259 4.46094 37.682 3.80786C36.8381 3.15479 35.6935 2.7879 34.5 2.7879H7.5Z" fill="#565CFB"/>
</svg>
