<svg width="63" height="59" viewBox="0 0 63 59" fill="none" xmlns="http://www.w3.org/2000/svg">
<g id="mdi:youtube-tv">
<path id="Vector" d="M6.5625 11.0625H56.4375C58.6425 11.0625 60.375 12.6604 60.375 14.75V43.0208C60.375 45.1104 58.6425 46.7083 56.4375 46.7083H6.5625C4.33125 46.7083 2.625 45.1104 2.625 43.0208V14.75C2.625 12.6604 4.33125 11.0625 6.5625 11.0625ZM25.4887 20.8958V36.875L40.4775 28.7625L25.4887 20.8958ZM45.2812 51.625H17.4562C16.6687 51.625 16.1437 51.1333 16.1437 50.3958C16.1437 49.6583 16.6687 49.1667 17.4562 49.1667H45.5437C46.3312 49.1667 46.8562 49.6583 46.8562 50.3958C46.8562 51.1333 46.0687 51.625 45.2812 51.625Z" fill="#565CFB"/>
</g>
</svg>
